# xmcd
#
# Track frame offsets:
# 150
# 11389
# 22227
# 34615
# 59221
# 76105
# 91694
# 107768
#
# Disc length: 1594 seconds
#
#
# Revision: 0
# Processed by: cddbd v1.5PL3 Copyright (c) Steve Scherf et al.
# Submitted via: FreeRIP 2.53 
#
DISCID=58063808
DTITLE=Richard Carr and The Gemtones - Real Blue
DYEAR=2002
DGENRE=Blues
TTITLE0=All your lovin
TTITLE1=Rock this House
TTITLE2=Sugar
TTITLE3=Stormy Monday
TTITLE4=Fine as Wine
TTITLE5=On the Other Hand
TTITLE6=Big Long Buick
TTITLE7=Flip Flop and Fly
EXTD=BluesfestRadio   com
EXTT0=
EXTT1=
EXTT2=
EXTT3=
EXTT4=
EXTT5=
EXTT6=
EXTT7=
PLAYORDER=
